<svg id="Capa_1" data-name="Capa 1" xmlns="http://www.w3.org/2000/svg" viewBox="0 0 50 50"><defs><style>.cls-1{fill:#4d4d4d;}</style></defs><path class="cls-1" d="M47.93,35.3H42.28v-11L30.15,37h5.9V48Zm-13.85,0,6.53-6.82V37h3.46l-6.34,6.78V35.3Z"/><path class="cls-1" d="M26,35.61a30.56,30.56,0,0,1-3.51.2c-10.72,0-17.12-5.05-17.12-13.51a17.12,17.12,0,0,1,34.23,0,.84.84,0,1,0,1.68,0,18.7,18.7,0,0,0-2-8.37A6.26,6.26,0,1,0,31,5.56a18.65,18.65,0,0,0-17,0,6.25,6.25,0,1,0-8.28,8.35,18.59,18.59,0,0,0-2,8.38c0,9.37,7.2,15.19,18.8,15.19a31.62,31.62,0,0,0,3.71-.22.84.84,0,0,0,.74-.93A.86.86,0,0,0,26,35.61ZM36.63,3.68a4.58,4.58,0,0,1,1.82,8.78,18.87,18.87,0,0,0-6-6.06A4.6,4.6,0,0,1,36.63,3.68ZM3.75,8.27A4.6,4.6,0,0,1,8.34,3.68,4.54,4.54,0,0,1,12.51,6.4a18.88,18.88,0,0,0-6,6A4.59,4.59,0,0,1,3.75,8.27Z"/><path class="cls-1" d="M22.48,7.34C14.71,7.34,8.83,13.2,8,18.71s.61,10.8,14.53,10.8S37.87,23.71,37,18.71,30.51,7.34,22.48,7.34ZM19.77,20.51a.91.91,0,0,1-1.28,0L16.7,18.72l-1.81,1.82a.92.92,0,0,1-1.29,0,.91.91,0,0,1,0-1.28l3.1-3.1h0l3.06,3.07A.91.91,0,0,1,19.77,20.51Zm2.74,4.14A1.52,1.52,0,0,1,21,23.12H24A1.53,1.53,0,0,1,22.51,24.65Zm8.83-4.32a.89.89,0,0,1-1.28,0l-1.79-1.78-1.81,1.81a.91.91,0,0,1-1.28-1.28L28.27,16h0l3.06,3.06A.89.89,0,0,1,31.34,20.33Z"/></svg>